# xmcd
#
# Track frame offsets: 
#        150
#        18104
#        37963
#        66104
#        85371
#        102946
#        121766
#        140418
#        164535
#        187380
#        207516
#        232465
#        254491
#
# Disc length: 3751 seconds
#
# Revision: 0
# Processed by: cddbd v1.5.2PL0 Copyright (c) Steve Scherf et al.
# Submitted via: ExactAudioCopy v1.2
#
DISCID=bf0ea50d
DTITLE=Lonnie Shields Band - Code Blue
DYEAR=2017
DGENRE=Blues
TTITLE0=Empty Pocket Man
TTITLE1=Can I Change My Mind
TTITLE2=Code Blue
TTITLE3=Hard Headed Woman
TTITLE4=Still Called the Blues
TTITLE5=I Like to Live the Love
TTITLE6=Aint Nobody Home
TTITLE7=Cause the World Aint Been Good to You
TTITLE8=The Thrill Is Gone
TTITLE9=My Baby Dont Love Me Anymore
TTITLE10=How Can You Mend a Broken Heart
TTITLE11=Never Make Your Move Too Soon
TTITLE12=Talkin Bout Life
EXTD=
EXTT0=
EXTT1=
EXTT2=
EXTT3=
EXTT4=
EXTT5=
EXTT6=
EXTT7=
EXTT8=
EXTT9=
EXTT10=
EXTT11=
EXTT12=
PLAYORDER=
